<svg width="760" height="528" viewBox="0 0 760 528" xmlns="http://www.w3.org/2000/svg" role="img" aria-label="Who ships the code — 71% of commits authored by me, 22% shipped autonomously by my agent fleet">
<rect x="0.5" y="0.5" width="759" height="527" rx="10" fill="#0d1117" stroke="#30363d"/>
<text x="40" y="42" font-size="18" font-weight="600" fill="#e6edf3" font-family="Segoe UI,Helvetica,Arial,sans-serif">Who ships the code</text>
<text x="40" y="62" font-size="11" fill="#8b949e" font-family="Segoe UI,Helvetica,Arial,sans-serif">last 90 days · every repo I own, public and private · 1,893 commits</text>

<text x="40" y="122" font-size="40" font-weight="700" fill="#58a6ff" font-family="Segoe UI,Helvetica,Arial,sans-serif">71%</text>
<text x="40" y="144" font-size="12" fill="#8b949e" font-family="Segoe UI,Helvetica,Arial,sans-serif">authored by me</text>
<text x="164" y="112" font-size="13" fill="#c9d1d9" font-family="Segoe UI,Helvetica,Arial,sans-serif">82% of it written pairing with Claude —</text>
<text x="164" y="132" font-size="13" fill="#c9d1d9" font-family="Segoe UI,Helvetica,Arial,sans-serif">my hands on the controls, every turn.</text>

<text x="470" y="122" font-size="40" font-weight="700" fill="#a371f7" font-family="Segoe UI,Helvetica,Arial,sans-serif">22%</text>
<text x="470" y="144" font-size="12" fill="#8b949e" font-family="Segoe UI,Helvetica,Arial,sans-serif">shipped by the fleet</text>
<text x="470" y="162" font-size="11" fill="#6e7681" font-family="Segoe UI,Helvetica,Arial,sans-serif">autonomous — I review and merge</text>

<text x="40" y="208" font-size="13" font-weight="600" fill="#c9d1d9" font-family="Segoe UI,Helvetica,Arial,sans-serif">Commits</text><text x="40" y="222" font-size="10" fill="#6e7681" font-family="Segoe UI,Helvetica,Arial,sans-serif">who authored them</text><rect x="150.00" y="200" width="50.92" height="16" fill="#58a6ff"/><rect x="200.92" y="200" width="234.55" height="16" fill="#d97757"/><rect x="435.47" y="200" width="88.11" height="16" fill="#a371f7"/><rect x="523.59" y="200" width="26.41" height="16" fill="#3fb950"/><rect x="150" y="200" width="400" height="16" rx="3" fill="none" stroke="#30363d"/><text x="564" y="213" font-size="12" fill="#8b949e" font-family="Segoe UI,Helvetica,Arial,sans-serif">1,893</text><text x="40" y="242" font-size="13" font-weight="600" fill="#c9d1d9" font-family="Segoe UI,Helvetica,Arial,sans-serif">Lines</text><text x="40" y="256" font-size="10" fill="#6e7681" font-family="Segoe UI,Helvetica,Arial,sans-serif">source lines only</text><rect x="150.00" y="234" width="54.02" height="16" fill="#58a6ff"/><rect x="204.02" y="234" width="269.30" height="16" fill="#d97757"/><rect x="473.32" y="234" width="76.61" height="16" fill="#a371f7"/><rect x="150" y="234" width="400" height="16" rx="3" fill="none" stroke="#30363d"/><text x="564" y="247" font-size="12" fill="#8b949e" font-family="Segoe UI,Helvetica,Arial,sans-serif">+345,213 / −24,589</text><text x="40" y="276" font-size="13" font-weight="600" fill="#c9d1d9" font-family="Segoe UI,Helvetica,Arial,sans-serif">Pull requests</text><text x="40" y="290" font-size="10" fill="#6e7681" font-family="Segoe UI,Helvetica,Arial,sans-serif">who opened them</text><rect x="150.00" y="268" width="145.95" height="16" fill="#58a6ff"/><rect x="295.95" y="268" width="220.95" height="16" fill="#a371f7"/><rect x="516.89" y="268" width="33.11" height="16" fill="#3fb950"/><rect x="150" y="268" width="400" height="16" rx="3" fill="none" stroke="#30363d"/><text x="564" y="281" font-size="12" fill="#8b949e" font-family="Segoe UI,Helvetica,Arial,sans-serif">592</text><text x="40" y="310" font-size="13" font-weight="600" fill="#c9d1d9" font-family="Segoe UI,Helvetica,Arial,sans-serif">Issues</text><text x="40" y="324" font-size="10" fill="#6e7681" font-family="Segoe UI,Helvetica,Arial,sans-serif">who opened them</text><rect x="150.00" y="302" width="79.07" height="16" fill="#58a6ff"/><rect x="229.07" y="302" width="318.02" height="16" fill="#a371f7"/><rect x="547.09" y="302" width="2.91" height="16" fill="#3fb950"/><rect x="150" y="302" width="400" height="16" rx="3" fill="none" stroke="#30363d"/><text x="564" y="315" font-size="12" fill="#8b949e" font-family="Segoe UI,Helvetica,Arial,sans-serif">688</text><text x="40" y="344" font-size="13" font-weight="600" fill="#c9d1d9" font-family="Segoe UI,Helvetica,Arial,sans-serif">Reviews</text><text x="40" y="358" font-size="10" fill="#6e7681" font-family="Segoe UI,Helvetica,Arial,sans-serif">who reviewed</text><rect x="150.00" y="336" width="25.98" height="16" fill="#58a6ff"/><rect x="175.98" y="336" width="374.02" height="16" fill="#a371f7"/><rect x="150" y="336" width="400" height="16" rx="3" fill="none" stroke="#30363d"/><text x="564" y="349" font-size="12" fill="#8b949e" font-family="Segoe UI,Helvetica,Arial,sans-serif">1,401</text><text x="40" y="378" font-size="13" font-weight="600" fill="#c9d1d9" font-family="Segoe UI,Helvetica,Arial,sans-serif">Discussion</text><text x="40" y="392" font-size="10" fill="#6e7681" font-family="Segoe UI,Helvetica,Arial,sans-serif">who commented</text><rect x="150.00" y="370" width="87.68" height="16" fill="#58a6ff"/><rect x="237.68" y="370" width="298.33" height="16" fill="#a371f7"/><rect x="536.01" y="370" width="13.99" height="16" fill="#3fb950"/><rect x="150" y="370" width="400" height="16" rx="3" fill="none" stroke="#30363d"/><text x="564" y="383" font-size="12" fill="#8b949e" font-family="Segoe UI,Helvetica,Arial,sans-serif">5,634</text>
<circle cx="45" cy="418" r="5" fill="#58a6ff"/><text x="56" y="422" font-size="12" fill="#c9d1d9" font-family="Segoe UI,Helvetica,Arial,sans-serif">Me</text><circle cx="405" cy="418" r="5" fill="#d97757"/><text x="416" y="422" font-size="12" fill="#c9d1d9" font-family="Segoe UI,Helvetica,Arial,sans-serif">+ Claude (paired)</text><circle cx="45" cy="438" r="5" fill="#a371f7"/><text x="56" y="442" font-size="12" fill="#c9d1d9" font-family="Segoe UI,Helvetica,Arial,sans-serif">Fleet — autonomous</text><circle cx="405" cy="438" r="5" fill="#3fb950"/><text x="416" y="442" font-size="12" fill="#c9d1d9" font-family="Segoe UI,Helvetica,Arial,sans-serif">CI / Dependabot</text>
<text x="40" y="478" font-size="10" fill="#6e7681" font-family="Segoe UI,Helvetica,Arial,sans-serif">PRs and issues show who opened them — GitHub records no pairing there.</text><text x="40" y="492" font-size="10" fill="#6e7681" font-family="Segoe UI,Helvetica,Arial,sans-serif">The fleet opens most of the tickets; it writes a smaller share of the code.</text><text x="40" y="506" font-size="10" fill="#6e7681" font-family="Segoe UI,Helvetica,Arial,sans-serif">Line counts exclude lockfiles, vendored trees, generated reports and committed data.</text>
</svg>